G04 #@! TF.GenerationSoftware,KiCad,Pcbnew,9.0.4*
G04 #@! TF.CreationDate,2025-08-29T08:58:49-04:00*
G04 #@! TF.ProjectId,jlcpcb_1x1,6a6c6370-6362-45f3-9178-312e6b696361,rev?*
G04 #@! TF.SameCoordinates,Original*
G04 #@! TF.FileFunction,Other,Comment*
%FSLAX46Y46*%
G04 Gerber Fmt 4.6, Leading zero omitted, Abs format (unit mm)*
G04 Created by KiCad (PCBNEW 9.0.4) date 2025-08-29 08:58:49*
%MOMM*%
%LPD*%
G01*
G04 APERTURE LIST*
%ADD10C,0.150000*%
G04 APERTURE END LIST*
D10*
X85086133Y-43516191D02*
X85086133Y-44278096D01*
X85705180Y-44659048D02*
X85705180Y-45278095D01*
X85705180Y-45278095D02*
X85324228Y-44944762D01*
X85324228Y-44944762D02*
X85324228Y-45087619D01*
X85324228Y-45087619D02*
X85276609Y-45182857D01*
X85276609Y-45182857D02*
X85228990Y-45230476D01*
X85228990Y-45230476D02*
X85133752Y-45278095D01*
X85133752Y-45278095D02*
X84895657Y-45278095D01*
X84895657Y-45278095D02*
X84800419Y-45230476D01*
X84800419Y-45230476D02*
X84752800Y-45182857D01*
X84752800Y-45182857D02*
X84705180Y-45087619D01*
X84705180Y-45087619D02*
X84705180Y-44801905D01*
X84705180Y-44801905D02*
X84752800Y-44706667D01*
X84752800Y-44706667D02*
X84800419Y-44659048D01*
X85705180Y-45897143D02*
X85705180Y-45992381D01*
X85705180Y-45992381D02*
X85657561Y-46087619D01*
X85657561Y-46087619D02*
X85609942Y-46135238D01*
X85609942Y-46135238D02*
X85514704Y-46182857D01*
X85514704Y-46182857D02*
X85324228Y-46230476D01*
X85324228Y-46230476D02*
X85086133Y-46230476D01*
X85086133Y-46230476D02*
X84895657Y-46182857D01*
X84895657Y-46182857D02*
X84800419Y-46135238D01*
X84800419Y-46135238D02*
X84752800Y-46087619D01*
X84752800Y-46087619D02*
X84705180Y-45992381D01*
X84705180Y-45992381D02*
X84705180Y-45897143D01*
X84705180Y-45897143D02*
X84752800Y-45801905D01*
X84752800Y-45801905D02*
X84800419Y-45754286D01*
X84800419Y-45754286D02*
X84895657Y-45706667D01*
X84895657Y-45706667D02*
X85086133Y-45659048D01*
X85086133Y-45659048D02*
X85324228Y-45659048D01*
X85324228Y-45659048D02*
X85514704Y-45706667D01*
X85514704Y-45706667D02*
X85609942Y-45754286D01*
X85609942Y-45754286D02*
X85657561Y-45801905D01*
X85657561Y-45801905D02*
X85705180Y-45897143D01*
X84800419Y-46659048D02*
X84752800Y-46706667D01*
X84752800Y-46706667D02*
X84705180Y-46659048D01*
X84705180Y-46659048D02*
X84752800Y-46611429D01*
X84752800Y-46611429D02*
X84800419Y-46659048D01*
X84800419Y-46659048D02*
X84705180Y-46659048D01*
X85371847Y-47563809D02*
X84705180Y-47563809D01*
X85752800Y-47325714D02*
X85038514Y-47087619D01*
X85038514Y-47087619D02*
X85038514Y-47706666D01*
X85276609Y-48230476D02*
X85324228Y-48135238D01*
X85324228Y-48135238D02*
X85371847Y-48087619D01*
X85371847Y-48087619D02*
X85467085Y-48040000D01*
X85467085Y-48040000D02*
X85514704Y-48040000D01*
X85514704Y-48040000D02*
X85609942Y-48087619D01*
X85609942Y-48087619D02*
X85657561Y-48135238D01*
X85657561Y-48135238D02*
X85705180Y-48230476D01*
X85705180Y-48230476D02*
X85705180Y-48420952D01*
X85705180Y-48420952D02*
X85657561Y-48516190D01*
X85657561Y-48516190D02*
X85609942Y-48563809D01*
X85609942Y-48563809D02*
X85514704Y-48611428D01*
X85514704Y-48611428D02*
X85467085Y-48611428D01*
X85467085Y-48611428D02*
X85371847Y-48563809D01*
X85371847Y-48563809D02*
X85324228Y-48516190D01*
X85324228Y-48516190D02*
X85276609Y-48420952D01*
X85276609Y-48420952D02*
X85276609Y-48230476D01*
X85276609Y-48230476D02*
X85228990Y-48135238D01*
X85228990Y-48135238D02*
X85181371Y-48087619D01*
X85181371Y-48087619D02*
X85086133Y-48040000D01*
X85086133Y-48040000D02*
X84895657Y-48040000D01*
X84895657Y-48040000D02*
X84800419Y-48087619D01*
X84800419Y-48087619D02*
X84752800Y-48135238D01*
X84752800Y-48135238D02*
X84705180Y-48230476D01*
X84705180Y-48230476D02*
X84705180Y-48420952D01*
X84705180Y-48420952D02*
X84752800Y-48516190D01*
X84752800Y-48516190D02*
X84800419Y-48563809D01*
X84800419Y-48563809D02*
X84895657Y-48611428D01*
X84895657Y-48611428D02*
X85086133Y-48611428D01*
X85086133Y-48611428D02*
X85181371Y-48563809D01*
X85181371Y-48563809D02*
X85228990Y-48516190D01*
X85228990Y-48516190D02*
X85276609Y-48420952D01*
X64766133Y-43992381D02*
X64766133Y-44754286D01*
X64956609Y-45373333D02*
X65004228Y-45278095D01*
X65004228Y-45278095D02*
X65051847Y-45230476D01*
X65051847Y-45230476D02*
X65147085Y-45182857D01*
X65147085Y-45182857D02*
X65194704Y-45182857D01*
X65194704Y-45182857D02*
X65289942Y-45230476D01*
X65289942Y-45230476D02*
X65337561Y-45278095D01*
X65337561Y-45278095D02*
X65385180Y-45373333D01*
X65385180Y-45373333D02*
X65385180Y-45563809D01*
X65385180Y-45563809D02*
X65337561Y-45659047D01*
X65337561Y-45659047D02*
X65289942Y-45706666D01*
X65289942Y-45706666D02*
X65194704Y-45754285D01*
X65194704Y-45754285D02*
X65147085Y-45754285D01*
X65147085Y-45754285D02*
X65051847Y-45706666D01*
X65051847Y-45706666D02*
X65004228Y-45659047D01*
X65004228Y-45659047D02*
X64956609Y-45563809D01*
X64956609Y-45563809D02*
X64956609Y-45373333D01*
X64956609Y-45373333D02*
X64908990Y-45278095D01*
X64908990Y-45278095D02*
X64861371Y-45230476D01*
X64861371Y-45230476D02*
X64766133Y-45182857D01*
X64766133Y-45182857D02*
X64575657Y-45182857D01*
X64575657Y-45182857D02*
X64480419Y-45230476D01*
X64480419Y-45230476D02*
X64432800Y-45278095D01*
X64432800Y-45278095D02*
X64385180Y-45373333D01*
X64385180Y-45373333D02*
X64385180Y-45563809D01*
X64385180Y-45563809D02*
X64432800Y-45659047D01*
X64432800Y-45659047D02*
X64480419Y-45706666D01*
X64480419Y-45706666D02*
X64575657Y-45754285D01*
X64575657Y-45754285D02*
X64766133Y-45754285D01*
X64766133Y-45754285D02*
X64861371Y-45706666D01*
X64861371Y-45706666D02*
X64908990Y-45659047D01*
X64908990Y-45659047D02*
X64956609Y-45563809D01*
X64480419Y-46182857D02*
X64432800Y-46230476D01*
X64432800Y-46230476D02*
X64385180Y-46182857D01*
X64385180Y-46182857D02*
X64432800Y-46135238D01*
X64432800Y-46135238D02*
X64480419Y-46182857D01*
X64480419Y-46182857D02*
X64385180Y-46182857D01*
X64956609Y-46801904D02*
X65004228Y-46706666D01*
X65004228Y-46706666D02*
X65051847Y-46659047D01*
X65051847Y-46659047D02*
X65147085Y-46611428D01*
X65147085Y-46611428D02*
X65194704Y-46611428D01*
X65194704Y-46611428D02*
X65289942Y-46659047D01*
X65289942Y-46659047D02*
X65337561Y-46706666D01*
X65337561Y-46706666D02*
X65385180Y-46801904D01*
X65385180Y-46801904D02*
X65385180Y-46992380D01*
X65385180Y-46992380D02*
X65337561Y-47087618D01*
X65337561Y-47087618D02*
X65289942Y-47135237D01*
X65289942Y-47135237D02*
X65194704Y-47182856D01*
X65194704Y-47182856D02*
X65147085Y-47182856D01*
X65147085Y-47182856D02*
X65051847Y-47135237D01*
X65051847Y-47135237D02*
X65004228Y-47087618D01*
X65004228Y-47087618D02*
X64956609Y-46992380D01*
X64956609Y-46992380D02*
X64956609Y-46801904D01*
X64956609Y-46801904D02*
X64908990Y-46706666D01*
X64908990Y-46706666D02*
X64861371Y-46659047D01*
X64861371Y-46659047D02*
X64766133Y-46611428D01*
X64766133Y-46611428D02*
X64575657Y-46611428D01*
X64575657Y-46611428D02*
X64480419Y-46659047D01*
X64480419Y-46659047D02*
X64432800Y-46706666D01*
X64432800Y-46706666D02*
X64385180Y-46801904D01*
X64385180Y-46801904D02*
X64385180Y-46992380D01*
X64385180Y-46992380D02*
X64432800Y-47087618D01*
X64432800Y-47087618D02*
X64480419Y-47135237D01*
X64480419Y-47135237D02*
X64575657Y-47182856D01*
X64575657Y-47182856D02*
X64766133Y-47182856D01*
X64766133Y-47182856D02*
X64861371Y-47135237D01*
X64861371Y-47135237D02*
X64908990Y-47087618D01*
X64908990Y-47087618D02*
X64956609Y-46992380D01*
X64385180Y-47659047D02*
X64385180Y-47849523D01*
X64385180Y-47849523D02*
X64432800Y-47944761D01*
X64432800Y-47944761D02*
X64480419Y-47992380D01*
X64480419Y-47992380D02*
X64623276Y-48087618D01*
X64623276Y-48087618D02*
X64813752Y-48135237D01*
X64813752Y-48135237D02*
X65194704Y-48135237D01*
X65194704Y-48135237D02*
X65289942Y-48087618D01*
X65289942Y-48087618D02*
X65337561Y-48039999D01*
X65337561Y-48039999D02*
X65385180Y-47944761D01*
X65385180Y-47944761D02*
X65385180Y-47754285D01*
X65385180Y-47754285D02*
X65337561Y-47659047D01*
X65337561Y-47659047D02*
X65289942Y-47611428D01*
X65289942Y-47611428D02*
X65194704Y-47563809D01*
X65194704Y-47563809D02*
X64956609Y-47563809D01*
X64956609Y-47563809D02*
X64861371Y-47611428D01*
X64861371Y-47611428D02*
X64813752Y-47659047D01*
X64813752Y-47659047D02*
X64766133Y-47754285D01*
X64766133Y-47754285D02*
X64766133Y-47944761D01*
X64766133Y-47944761D02*
X64813752Y-48039999D01*
X64813752Y-48039999D02*
X64861371Y-48087618D01*
X64861371Y-48087618D02*
X64956609Y-48135237D01*
G04 #@! TO.C,board_outline1*
X30470000Y-46615000D02*
G75*
G02*
X26670000Y-46615000I-1900000J0D01*
G01*
X26670000Y-46615000D02*
G75*
G02*
X30470000Y-46615000I1900000J0D01*
G01*
X53330000Y-46615000D02*
G75*
G02*
X49530000Y-46615000I-1900000J0D01*
G01*
X49530000Y-46615000D02*
G75*
G02*
X53330000Y-46615000I1900000J0D01*
G01*
G04 #@! TD*
M02*
