M48
; DRILL file {KiCad 9.0.4} date 2025-08-29T08:58:50-0400
; FORMAT={-:-/ absolute / metric / decimal}
; #@! TF.CreationDate,2025-08-29T08:58:50-04:00
; #@! TF.GenerationSoftware,Kicad,Pcbnew,9.0.4
; #@! TF.FileFunction,Plated,1,8,PTH
FMAT,2
METRIC
; #@! TA.AperFunction,Plated,PTH,ViaDrill
T1C0.300
; #@! TA.AperFunction,Plated,PTH,ComponentDrill
T2C0.400
; #@! TA.AperFunction,Plated,PTH,ComponentDrill
T3C0.600
; #@! TA.AperFunction,Plated,PTH,ComponentDrill
T4C0.750
; #@! TA.AperFunction,Plated,PTH,ComponentDrill
T5C0.800
; #@! TA.AperFunction,Plated,PTH,ComponentDrill
T6C0.920
; #@! TA.AperFunction,Plated,PTH,ComponentDrill
T7C1.000
; #@! TA.AperFunction,Plated,PTH,ComponentDrill
T8C1.100
; #@! TA.AperFunction,Plated,PTH,ComponentDrill
T9C1.300
; #@! TA.AperFunction,Plated,PTH,ComponentDrill
T10C1.400
; #@! TA.AperFunction,Plated,PTH,ComponentDrill
T11C1.500
; #@! TA.AperFunction,Plated,PTH,ComponentDrill
T12C1.700
; #@! TA.AperFunction,Plated,PTH,ComponentDrill
T13C2.200
; #@! TA.AperFunction,Plated,PTH,ComponentDrill
T14C2.300
; #@! TA.AperFunction,Plated,PTH,ComponentDrill
T15C2.450
%
G90
G05
T1
X7.5Y-52.5
X8.0Y-17.0
X8.0Y-25.0
X8.0Y-34.0
X8.0Y-46.0
X8.0Y-60.5
X8.0Y-68.5
X8.0Y-78.0
X8.0Y-83.0
X8.0Y-86.0
X8.0Y-90.0
X8.2Y-57.5
X8.5Y-20.5
X8.5Y-73.5
X9.7Y-55.506
X10.231Y-31.531
X11.0Y-95.5
X12.0Y-23.5
X12.0Y-63.0
X12.5Y-90.5
X13.5Y-81.0
X13.5Y-97.0
X13.541Y-68.76
X15.5Y-24.5
X15.5Y-105.0
X16.0Y-76.0
X16.493Y-79.481
X16.5Y-82.0
X16.5Y-84.5
X16.5Y-90.0
X16.7Y-95.5
X16.881Y-70.0
X17.0Y-20.5
X17.0Y-40.5
X17.0Y-43.0
X17.0Y-101.5
X17.5Y-47.5
X17.5Y-51.0
X17.5Y-62.0
X17.5Y-65.0
X17.5Y-83.5
X17.5Y-87.5
X18.0Y-58.5
X18.5Y-9.5
X18.5Y-45.0
X18.5Y-51.5
X18.5Y-54.0
X18.5Y-102.0
X19.0Y-35.0
X19.0Y-37.5
X19.0Y-48.5
X19.0Y-57.0
X19.0Y-62.0
X19.0Y-64.5
X19.0Y-70.0
X19.0Y-72.5
X19.0Y-75.937
X19.0Y-82.0
X19.0Y-85.5
X19.5Y-40.5
X19.5Y-43.0
X19.5Y-79.0
X19.784Y-80.0
X19.885Y-32.385
X20.2Y-27.5
X21.0Y-17.0
X22.0Y-100.5
X23.271Y-100.36
X23.966Y-23.166
X24.0Y-9.0
X24.0Y-100.8
X25.955Y-69.367
X25.993Y-74.548
X26.0Y-22.0
X26.0Y-51.0
X26.0Y-54.0
X26.0Y-57.0
X26.0Y-59.0
X26.0Y-60.5
X26.0Y-62.0
X26.0Y-63.5
X26.0Y-65.0
X26.0Y-66.5
X26.0Y-71.0
X26.0Y-72.5
X26.0Y-76.0
X26.0Y-80.0
X26.25Y-98.9
X26.408Y-87.38
X28.0Y-89.8
X28.0Y-104.5
X28.1Y-48.935
X28.15Y-80.0
X28.3Y-30.0
X28.5Y-72.5
X28.5Y-102.0
X29.0Y-97.0
X29.725Y-23.225
X30.0Y-32.0
X30.0Y-72.5
X30.0Y-79.021
X30.431Y-91.403
X30.816Y-75.184
X31.0Y-80.5
X31.5Y-46.5
X32.2Y-34.5
X32.5Y-93.845
X33.5Y-56.5
X33.5Y-104.0
X34.0Y-10.0
X34.0Y-82.0
X34.0Y-90.5
X34.863Y-34.78
X36.0Y-47.5
X36.228Y-57.306
X36.5Y-88.5
X36.7Y-62.039
X36.915Y-58.454
X37.0Y-21.0
X37.5Y-35.0
X37.5Y-79.5
X38.085Y-51.5
X38.3Y-70.466
X38.569Y-73.438
X38.8Y-64.0
X39.0Y-9.299
X39.186Y-71.364
X41.5Y-43.599
X41.5Y-47.5
X43.0Y-27.5
X43.0Y-65.5
X43.0Y-72.0
X43.0Y-91.5
X43.7Y-96.765
X44.0Y-23.0
X44.0Y-46.0
X44.5Y-95.73
X44.5Y-103.0
X45.531Y-78.7
X46.5Y-47.0
X47.0Y-94.5
X48.0Y-9.5
X48.0Y-24.5
X48.0Y-98.0
X48.5Y-48.0
X49.0Y-49.0
X49.114Y-86.386
X49.5Y-104.5
X50.5Y-12.5
X50.891Y-77.259
X51.316Y-90.3
X52.0Y-101.5
X53.0Y-50.0
X53.5Y-9.7
X53.5Y-104.5
X54.5Y-76.0
X55.0Y-59.0
X55.0Y-64.95
X55.0Y-70.95
X55.0Y-77.721
X55.085Y-42.284
X55.5Y-52.95
X55.5Y-69.5
X55.55Y-96.5
X56.5Y-78.0
X58.0Y-101.0
X59.35Y-71.5
X59.7Y-65.0
X60.0Y-40.101
X60.5Y-51.0
X60.5Y-57.0
X60.5Y-63.0
X60.5Y-77.5
X60.525Y-68.85
X61.5Y-45.5
X61.785Y-33.35
X62.393Y-67.299
X62.5Y-62.0
X62.5Y-74.0
X62.825Y-36.35
X62.825Y-55.0
X63.0Y-9.5
X63.0Y-39.5
X63.0Y-68.85
X63.5Y-104.5
X63.81Y-24.31
X64.0Y-52.45
X64.0Y-59.0
X64.0Y-65.0
X64.0Y-69.5
X64.2Y-83.5
X65.0Y-13.0
X65.0Y-41.5
X65.5Y-102.5
X66.5Y-36.35
X68.5Y-38.5
X68.5Y-89.5
X69.0Y-24.5
X69.0Y-65.0
X69.25Y-49.6
X69.35Y-42.0
X69.5Y-9.0
X69.5Y-100.5
X70.0Y-30.0
X70.0Y-85.0
X70.0Y-97.5
X70.5Y-104.0
X70.971Y-88.795
X71.0Y-40.428
X71.0Y-81.5
X71.5Y-72.309
X71.5Y-76.5
X72.0Y-85.0
X72.0Y-101.5
X72.5Y-66.5
X72.5Y-69.3
X72.5Y-97.0
X72.5Y-104.992
X72.65Y-78.5
X72.99Y-35.35
X72.99Y-40.428
X73.5Y-50.5
X73.5Y-74.65
X74.0Y-65.5
X74.15Y-56.0
X74.5Y-43.0
X74.5Y-78.0
X74.5Y-97.0
X74.899Y-103.5
X75.0Y-11.0
X75.0Y-37.5
X75.0Y-105.5
X75.5Y-66.85
X75.5Y-67.7
X76.0Y-75.5
X76.2Y-60.0
X76.5Y-102.789
X76.542Y-57.336
X77.0Y-98.0
X77.144Y-83.0
X77.144Y-85.5
X77.305Y-55.615
X77.79Y-52.79
X78.5Y-74.0
X78.5Y-104.5
X78.525Y-69.04
X78.597Y-71.51
X78.85Y-75.5
X79.0Y-64.85
X79.0Y-100.475
X79.5Y-85.5
X79.5Y-88.0
X80.0Y-96.5
X80.438Y-28.025
X81.0Y-105.5
X81.5Y-41.0
X84.0Y-15.0
X84.5Y-9.5
X84.5Y-35.0
X85.0Y-48.616
X85.0Y-71.0
X85.5Y-43.0
X85.5Y-98.008
X86.0Y-50.0
X88.925Y-44.953
X89.5Y-25.0
X89.75Y-63.25
X90.5Y-70.0
X90.5Y-99.0
X90.96Y-37.505
X91.0Y-9.0
X91.0Y-57.5
X91.0Y-77.0
X92.754Y-80.181
X94.0Y-66.83
X94.5Y-46.5
X95.0Y-35.5
X95.0Y-76.0
X95.0Y-99.0
X95.275Y-13.877
X96.0Y-9.5
X97.0Y-49.5
X97.5Y-53.0
X97.5Y-61.0
X97.5Y-73.5
X97.5Y-86.5
X97.5Y-93.85
X97.5Y-99.0
X99.0Y-34.5
X99.5Y-83.0
X100.5Y-10.0
X101.0Y-57.2
X101.5Y-46.5
X101.715Y-78.635
X102.0Y-81.5
X102.0Y-96.5
X102.03Y-34.95
X102.5Y-37.8
X103.0Y-51.0
X103.5Y-44.0
X103.5Y-84.0
X103.5Y-87.0
X103.65Y-63.5
X103.65Y-69.559
X103.65Y-76.0
X105.5Y-49.5
X106.71Y-36.79
X107.0Y-8.5
X107.0Y-99.0
X108.0Y-29.5
X108.0Y-42.0
X108.0Y-65.5
X108.262Y-34.343
X109.5Y-17.5
X110.5Y-54.5
X110.5Y-88.0
X111.79Y-36.749
X112.0Y-30.0
X114.5Y-44.15
X114.5Y-46.5
X114.5Y-65.5
X115.0Y-8.5
X115.0Y-53.0
X115.0Y-58.159
X115.0Y-63.0
X115.0Y-68.0
X115.0Y-82.0
X115.0Y-84.5
X115.0Y-99.5
X115.65Y-80.5
X115.65Y-98.5
X116.0Y-66.83
X116.5Y-72.0
X116.724Y-40.85
X117.0Y-38.5
X117.0Y-75.5
X117.0Y-91.0
X117.0Y-94.0
X117.5Y-10.5
X117.5Y-59.0
X117.5Y-96.5
X123.0Y-16.5
X125.0Y-46.0
X125.5Y-34.0
X125.5Y-62.0
X125.5Y-66.0
X125.5Y-79.0
X125.5Y-84.0
X125.5Y-96.5
X126.0Y-22.5
X126.0Y-40.5
X126.0Y-50.0
X126.0Y-55.5
X126.0Y-69.0
X126.0Y-74.5
X126.0Y-91.5
T2
X79.025Y-11.75
X79.025Y-13.1
X79.875Y-11.75
X79.875Y-13.1
X80.725Y-11.75
X80.725Y-13.1
X81.575Y-11.75
X81.575Y-13.1
X82.425Y-11.75
X82.425Y-13.1
X83.275Y-11.75
X83.275Y-13.1
X84.125Y-11.75
X84.125Y-13.1
X84.975Y-11.75
X84.975Y-13.1
T5
X73.73Y-48.04
X76.27Y-48.04
X87.6Y-58.36
X87.6Y-60.9
X87.6Y-63.44
X87.6Y-65.98
X87.6Y-68.52
X87.6Y-71.06
X87.6Y-73.6
X87.6Y-76.14
X87.6Y-78.68
X87.6Y-81.22
X87.6Y-83.76
X87.6Y-86.3
X87.6Y-88.84
X87.6Y-91.38
X87.6Y-93.92
X87.6Y-96.46
X87.6Y-99.0
X87.604Y-53.283
X87.604Y-55.823
X113.0Y-53.28
X113.0Y-55.82
X113.0Y-58.36
X113.0Y-60.9
X113.0Y-63.44
X113.0Y-65.98
X113.0Y-68.52
X113.0Y-71.06
X113.0Y-73.6
X113.0Y-76.14
X113.0Y-78.68
X113.0Y-81.22
X113.0Y-83.76
X113.0Y-86.3
X113.0Y-88.84
X113.0Y-91.38
X113.0Y-93.92
X113.0Y-96.46
X113.0Y-99.0
T6
X92.445Y-19.99
X94.945Y-19.99
X96.945Y-19.99
X99.445Y-19.99
T7
X12.29Y-27.57
X12.29Y-30.11
X12.29Y-32.65
X12.29Y-35.19
X12.29Y-37.73
X12.29Y-40.27
X12.29Y-42.81
X12.29Y-45.35
X12.29Y-47.89
X12.29Y-50.43
X12.29Y-64.57
X12.29Y-67.11
X12.29Y-69.65
X12.29Y-72.19
X12.29Y-74.73
X12.29Y-77.27
X12.29Y-79.81
X12.29Y-82.35
X12.29Y-84.89
X12.29Y-87.43
X14.83Y-27.57
X14.83Y-30.11
X14.83Y-32.65
X14.83Y-35.19
X14.83Y-37.73
X14.83Y-40.27
X14.83Y-42.81
X14.83Y-45.35
X14.83Y-47.89
X14.83Y-50.43
X14.83Y-64.57
X14.83Y-67.11
X14.83Y-69.65
X14.83Y-72.19
X14.83Y-74.73
X14.83Y-77.27
X14.83Y-79.81
X14.83Y-82.35
X14.83Y-84.89
X14.83Y-87.43
X28.57Y-51.71
X28.57Y-54.25
X28.57Y-56.79
X28.57Y-59.33
X28.57Y-61.87
X28.57Y-64.41
X28.57Y-66.95
X28.57Y-69.49
X28.575Y-36.46
X28.575Y-39.0
X30.967Y-27.75
X30.967Y-30.25
X31.115Y-36.46
X31.115Y-39.0
X33.655Y-36.46
X33.655Y-39.0
X36.195Y-36.46
X36.195Y-39.0
X38.735Y-36.46
X38.735Y-39.0
X41.275Y-36.46
X41.275Y-39.0
X42.632Y-86.0
X43.815Y-36.46
X43.815Y-39.0
X46.132Y-86.0
X46.355Y-36.46
X46.355Y-39.0
X47.632Y-86.0
X48.89Y-51.71
X48.89Y-54.25
X48.89Y-56.79
X48.89Y-59.33
X48.89Y-61.87
X48.89Y-64.41
X48.89Y-66.95
X48.89Y-69.49
X48.89Y-72.015
X48.895Y-36.46
X48.895Y-39.0
X51.43Y-51.71
X51.43Y-54.25
X51.43Y-56.79
X51.43Y-59.33
X51.43Y-61.87
X51.43Y-64.41
X51.43Y-66.95
X51.43Y-69.49
X51.435Y-36.46
X51.435Y-39.0
X54.632Y-86.0
X58.132Y-86.0
X58.467Y-27.25
X58.467Y-29.75
X59.632Y-86.0
X76.425Y-22.0
X78.965Y-22.0
X81.505Y-22.0
X84.045Y-22.0
X86.585Y-22.0
X119.962Y-85.557
X119.962Y-88.097
X119.962Y-90.637
X119.962Y-93.177
X120.0Y-21.96
X120.0Y-24.5
X120.0Y-27.04
X120.0Y-29.58
X120.0Y-32.12
X120.0Y-34.66
X120.0Y-37.2
X120.0Y-39.74
X120.0Y-42.28
X120.0Y-44.82
X120.0Y-47.36
X120.0Y-49.9
X120.0Y-52.44
X120.0Y-54.98
X120.0Y-57.52
X120.0Y-60.06
X120.0Y-62.6
X120.0Y-65.14
X120.0Y-67.68
X120.0Y-70.22
X120.0Y-72.76
X120.0Y-75.3
X120.0Y-77.84
X120.0Y-80.38
X120.0Y-82.92
X122.502Y-85.557
X122.502Y-88.097
X122.502Y-90.637
X122.502Y-93.177
X122.54Y-21.96
X122.54Y-24.5
X122.54Y-27.04
X122.54Y-29.58
X122.54Y-32.12
X122.54Y-34.66
X122.54Y-37.2
X122.54Y-39.74
X122.54Y-42.28
X122.54Y-44.82
X122.54Y-47.36
X122.54Y-49.9
X122.54Y-52.44
X122.54Y-54.98
X122.54Y-57.52
X122.54Y-60.06
X122.54Y-62.6
X122.54Y-65.14
X122.54Y-67.68
X122.54Y-70.22
X122.54Y-72.76
X122.54Y-75.3
X122.54Y-77.84
X122.54Y-80.38
X122.54Y-82.92
T8
X67.38Y-47.31
X67.38Y-49.85
X67.38Y-52.39
X67.38Y-54.93
X67.38Y-57.47
X67.38Y-60.01
X67.38Y-62.55
X67.38Y-65.09
X67.38Y-67.63
X67.38Y-70.17
X67.38Y-72.71
X67.38Y-75.25
X67.38Y-77.79
X67.38Y-80.33
X67.38Y-82.87
X67.38Y-85.41
X67.38Y-87.95
X67.38Y-90.49
X67.38Y-93.03
X67.38Y-95.57
X67.38Y-98.11
X67.38Y-100.65
X67.38Y-103.19
X67.38Y-105.73
X69.92Y-93.03
X70.431Y-53.609
X70.431Y-56.149
X70.431Y-58.689
X70.431Y-61.229
X70.431Y-63.769
X72.46Y-93.03
X75.0Y-93.03
X77.54Y-93.03
X80.08Y-49.85
X80.08Y-93.03
X82.62Y-47.31
X82.62Y-49.85
X82.62Y-52.39
X82.62Y-54.93
X82.62Y-57.47
X82.62Y-60.01
X82.62Y-62.55
X82.62Y-65.09
X82.62Y-67.63
X82.62Y-70.17
X82.62Y-72.71
X82.62Y-75.25
X82.62Y-77.79
X82.62Y-80.33
X82.62Y-82.87
X82.62Y-85.41
X82.62Y-87.95
X82.62Y-90.49
X82.62Y-93.03
X82.62Y-95.57
X82.62Y-98.11
X82.62Y-100.65
X82.62Y-103.19
X82.62Y-105.73
T9
X25.751Y-19.5
X39.751Y-19.5
X55.751Y-19.5
X69.751Y-19.5
T10
X20.885Y-91.75
X20.885Y-98.1
X20.885Y-104.45
X37.115Y-91.75
X37.115Y-98.1
X37.115Y-104.45
T11
X25.751Y-12.25
X39.751Y-12.25
X55.751Y-12.25
X69.751Y-12.25
T12
X15.851Y-15.75
X42.151Y-15.75
X45.851Y-15.75
X72.151Y-15.75
T13
X28.57Y-46.615
X51.43Y-46.615
X51.43Y-74.555
T14
X89.485Y-17.28
X102.515Y-17.28
T15
X10.175Y-12.16
X10.175Y-101.834
X123.825Y-12.16
X123.825Y-101.84
T3
X77.675Y-9.14G85X77.675Y-8.34
G05
X77.675Y-12.87G85X77.675Y-11.37
G05
X86.325Y-9.14G85X86.325Y-8.34
G05
X86.325Y-12.87G85X86.325Y-11.37
G05
T4
X40.05Y-97.7G85X40.05Y-96.7
G05
X42.75Y-99.1G85X42.75Y-98.1
G05
X45.75Y-105.0G85X44.75Y-105.0
G05
X48.75Y-94.0G85X49.75Y-94.0
G05
X49.75Y-101.1G85X49.75Y-102.1
G05
X52.05Y-97.7G85X52.05Y-96.7
G05
X54.75Y-99.1G85X54.75Y-98.1
G05
X57.75Y-105.0G85X56.75Y-105.0
G05
X60.75Y-94.0G85X61.75Y-94.0
G05
X61.75Y-101.1G85X61.75Y-102.1
G05
X105.8Y-12.9G85X105.8Y-11.9
G05
X106.8Y-20.0G85X105.8Y-20.0
G05
X109.8Y-9.0G85X110.8Y-9.0
G05
X112.8Y-14.9G85X112.8Y-15.9
G05
X115.5Y-16.3G85X115.5Y-17.3
G05
M30
