G04 #@! TF.GenerationSoftware,KiCad,Pcbnew,9.0.4*
G04 #@! TF.CreationDate,2025-08-29T08:58:49-04:00*
G04 #@! TF.ProjectId,jlcpcb_1x1,6a6c6370-6362-45f3-9178-312e6b696361,rev?*
G04 #@! TF.SameCoordinates,Original*
G04 #@! TF.FileFunction,Legend,Bot*
G04 #@! TF.FilePolarity,Positive*
%FSLAX46Y46*%
G04 Gerber Fmt 4.6, Leading zero omitted, Abs format (unit mm)*
G04 Created by KiCad (PCBNEW 9.0.4) date 2025-08-29 08:58:49*
%MOMM*%
%LPD*%
G01*
G04 APERTURE LIST*
%ADD10C,0.150000*%
%ADD11C,0.120000*%
G04 APERTURE END LIST*
D10*
X96214285Y-15179938D02*
X96309523Y-15132319D01*
X96309523Y-15132319D02*
X96452380Y-15132319D01*
X96452380Y-15132319D02*
X96595237Y-15179938D01*
X96595237Y-15179938D02*
X96690475Y-15275176D01*
X96690475Y-15275176D02*
X96738094Y-15370414D01*
X96738094Y-15370414D02*
X96785713Y-15560890D01*
X96785713Y-15560890D02*
X96785713Y-15703747D01*
X96785713Y-15703747D02*
X96738094Y-15894223D01*
X96738094Y-15894223D02*
X96690475Y-15989461D01*
X96690475Y-15989461D02*
X96595237Y-16084700D01*
X96595237Y-16084700D02*
X96452380Y-16132319D01*
X96452380Y-16132319D02*
X96357142Y-16132319D01*
X96357142Y-16132319D02*
X96214285Y-16084700D01*
X96214285Y-16084700D02*
X96166666Y-16037080D01*
X96166666Y-16037080D02*
X96166666Y-15703747D01*
X96166666Y-15703747D02*
X96357142Y-15703747D01*
X95214285Y-16132319D02*
X95785713Y-16132319D01*
X95499999Y-16132319D02*
X95499999Y-15132319D01*
X95499999Y-15132319D02*
X95595237Y-15275176D01*
X95595237Y-15275176D02*
X95690475Y-15370414D01*
X95690475Y-15370414D02*
X95785713Y-15418033D01*
X115654819Y-36871429D02*
X114654819Y-36871429D01*
X115654819Y-37823809D02*
X115654819Y-37347619D01*
X115654819Y-37347619D02*
X114654819Y-37347619D01*
X115654819Y-38157143D02*
X114654819Y-38157143D01*
X115750057Y-38395238D02*
X115750057Y-39157142D01*
X114654819Y-39252381D02*
X115654819Y-39585714D01*
X115654819Y-39585714D02*
X114654819Y-39919047D01*
X115559580Y-40823809D02*
X115607200Y-40776190D01*
X115607200Y-40776190D02*
X115654819Y-40633333D01*
X115654819Y-40633333D02*
X115654819Y-40538095D01*
X115654819Y-40538095D02*
X115607200Y-40395238D01*
X115607200Y-40395238D02*
X115511961Y-40300000D01*
X115511961Y-40300000D02*
X115416723Y-40252381D01*
X115416723Y-40252381D02*
X115226247Y-40204762D01*
X115226247Y-40204762D02*
X115083390Y-40204762D01*
X115083390Y-40204762D02*
X114892914Y-40252381D01*
X114892914Y-40252381D02*
X114797676Y-40300000D01*
X114797676Y-40300000D02*
X114702438Y-40395238D01*
X114702438Y-40395238D02*
X114654819Y-40538095D01*
X114654819Y-40538095D02*
X114654819Y-40633333D01*
X114654819Y-40633333D02*
X114702438Y-40776190D01*
X114702438Y-40776190D02*
X114750057Y-40823809D01*
X115559580Y-41823809D02*
X115607200Y-41776190D01*
X115607200Y-41776190D02*
X115654819Y-41633333D01*
X115654819Y-41633333D02*
X115654819Y-41538095D01*
X115654819Y-41538095D02*
X115607200Y-41395238D01*
X115607200Y-41395238D02*
X115511961Y-41300000D01*
X115511961Y-41300000D02*
X115416723Y-41252381D01*
X115416723Y-41252381D02*
X115226247Y-41204762D01*
X115226247Y-41204762D02*
X115083390Y-41204762D01*
X115083390Y-41204762D02*
X114892914Y-41252381D01*
X114892914Y-41252381D02*
X114797676Y-41300000D01*
X114797676Y-41300000D02*
X114702438Y-41395238D01*
X114702438Y-41395238D02*
X114654819Y-41538095D01*
X114654819Y-41538095D02*
X114654819Y-41633333D01*
X114654819Y-41633333D02*
X114702438Y-41776190D01*
X114702438Y-41776190D02*
X114750057Y-41823809D01*
X115654819Y-42776190D02*
X115654819Y-42204762D01*
X115654819Y-42490476D02*
X114654819Y-42490476D01*
X114654819Y-42490476D02*
X114797676Y-42395238D01*
X114797676Y-42395238D02*
X114892914Y-42300000D01*
X114892914Y-42300000D02*
X114940533Y-42204762D01*
X116454819Y-42066667D02*
X116454819Y-42685714D01*
X116454819Y-42685714D02*
X116835771Y-42352381D01*
X116835771Y-42352381D02*
X116835771Y-42495238D01*
X116835771Y-42495238D02*
X116883390Y-42590476D01*
X116883390Y-42590476D02*
X116931009Y-42638095D01*
X116931009Y-42638095D02*
X117026247Y-42685714D01*
X117026247Y-42685714D02*
X117264342Y-42685714D01*
X117264342Y-42685714D02*
X117359580Y-42638095D01*
X117359580Y-42638095D02*
X117407200Y-42590476D01*
X117407200Y-42590476D02*
X117454819Y-42495238D01*
X117454819Y-42495238D02*
X117454819Y-42209524D01*
X117454819Y-42209524D02*
X117407200Y-42114286D01*
X117407200Y-42114286D02*
X117359580Y-42066667D01*
X117454819Y-37485714D02*
X117454819Y-36914286D01*
X117454819Y-37200000D02*
X116454819Y-37200000D01*
X116454819Y-37200000D02*
X116597676Y-37104762D01*
X116597676Y-37104762D02*
X116692914Y-37009524D01*
X116692914Y-37009524D02*
X116740533Y-36914286D01*
X83802438Y-17285714D02*
X83754819Y-17190476D01*
X83754819Y-17190476D02*
X83754819Y-17047619D01*
X83754819Y-17047619D02*
X83802438Y-16904762D01*
X83802438Y-16904762D02*
X83897676Y-16809524D01*
X83897676Y-16809524D02*
X83992914Y-16761905D01*
X83992914Y-16761905D02*
X84183390Y-16714286D01*
X84183390Y-16714286D02*
X84326247Y-16714286D01*
X84326247Y-16714286D02*
X84516723Y-16761905D01*
X84516723Y-16761905D02*
X84611961Y-16809524D01*
X84611961Y-16809524D02*
X84707200Y-16904762D01*
X84707200Y-16904762D02*
X84754819Y-17047619D01*
X84754819Y-17047619D02*
X84754819Y-17142857D01*
X84754819Y-17142857D02*
X84707200Y-17285714D01*
X84707200Y-17285714D02*
X84659580Y-17333333D01*
X84659580Y-17333333D02*
X84326247Y-17333333D01*
X84326247Y-17333333D02*
X84326247Y-17142857D01*
X83850057Y-17714286D02*
X83802438Y-17761905D01*
X83802438Y-17761905D02*
X83754819Y-17857143D01*
X83754819Y-17857143D02*
X83754819Y-18095238D01*
X83754819Y-18095238D02*
X83802438Y-18190476D01*
X83802438Y-18190476D02*
X83850057Y-18238095D01*
X83850057Y-18238095D02*
X83945295Y-18285714D01*
X83945295Y-18285714D02*
X84040533Y-18285714D01*
X84040533Y-18285714D02*
X84183390Y-18238095D01*
X84183390Y-18238095D02*
X84754819Y-17666667D01*
X84754819Y-17666667D02*
X84754819Y-18285714D01*
D11*
G04 #@! TO.C,G1*
X94600000Y-12877500D02*
X94600000Y-14877500D01*
X94600000Y-14877500D02*
X97400000Y-14877500D01*
X97400000Y-12877500D02*
X94600000Y-12877500D01*
X97400000Y-14877500D02*
X97400000Y-12877500D01*
G04 #@! TO.C,ILI_VCC1*
X116000000Y-37750000D02*
X116000000Y-41850000D01*
X116000000Y-41850000D02*
X118000000Y-41850000D01*
X118000000Y-37750000D02*
X116000000Y-37750000D01*
X118000000Y-41850000D02*
X118000000Y-37750000D01*
G04 #@! TO.C,G2*
X81500000Y-16100000D02*
X81500000Y-18900000D01*
X81500000Y-18900000D02*
X83500000Y-18900000D01*
X83500000Y-16100000D02*
X81500000Y-16100000D01*
X83500000Y-18900000D02*
X83500000Y-16100000D01*
G04 #@! TD*
M02*
