G04 #@! TF.GenerationSoftware,KiCad,Pcbnew,9.0.4*
G04 #@! TF.CreationDate,2025-08-29T08:58:49-04:00*
G04 #@! TF.ProjectId,jlcpcb_1x1,6a6c6370-6362-45f3-9178-312e6b696361,rev?*
G04 #@! TF.SameCoordinates,Original*
G04 #@! TF.FileFunction,Soldermask,Bot*
G04 #@! TF.FilePolarity,Negative*
%FSLAX46Y46*%
G04 Gerber Fmt 4.6, Leading zero omitted, Abs format (unit mm)*
G04 Created by KiCad (PCBNEW 9.0.4) date 2025-08-29 08:58:49*
%MOMM*%
%LPD*%
G01*
G04 APERTURE LIST*
G04 Aperture macros list*
%AMRoundRect*
0 Rectangle with rounded corners*
0 $1 Rounding radius*
0 $2 $3 $4 $5 $6 $7 $8 $9 X,Y pos of 4 corners*
0 Add a 4 corners polygon primitive as box body*
4,1,4,$2,$3,$4,$5,$6,$7,$8,$9,$2,$3,0*
0 Add four circle primitives for the rounded corners*
1,1,$1+$1,$2,$3*
1,1,$1+$1,$4,$5*
1,1,$1+$1,$6,$7*
1,1,$1+$1,$8,$9*
0 Add four rect primitives between the rounded corners*
20,1,$1+$1,$2,$3,$4,$5,0*
20,1,$1+$1,$4,$5,$6,$7,0*
20,1,$1+$1,$6,$7,$8,$9,0*
20,1,$1+$1,$8,$9,$2,$3,0*%
%AMFreePoly0*
4,1,6,1.000000,0.000000,0.500000,-0.750000,-0.500000,-0.750000,-0.500000,0.750000,0.500000,0.750000,1.000000,0.000000,1.000000,0.000000,$1*%
%AMFreePoly1*
4,1,6,0.500000,-0.750000,-0.650000,-0.750000,-0.150000,0.000000,-0.650000,0.750000,0.500000,0.750000,0.500000,-0.750000,0.500000,-0.750000,$1*%
G04 Aperture macros list end*
%ADD10C,0.002000*%
%ADD11RoundRect,0.250000X-0.600000X-0.600000X0.600000X-0.600000X0.600000X0.600000X-0.600000X0.600000X0*%
%ADD12C,1.700000*%
%ADD13C,0.500000*%
%ADD14R,1.700000X1.700000*%
%ADD15O,1.700000X1.700000*%
%ADD16RoundRect,0.250000X-0.750000X-0.750000X0.750000X-0.750000X0.750000X0.750000X-0.750000X0.750000X0*%
%ADD17C,2.000000*%
%ADD18RoundRect,0.312500X-0.812500X-0.312500X0.812500X-0.312500X0.812500X0.312500X-0.812500X0.312500X0*%
%ADD19RoundRect,0.312500X-0.312500X0.812500X-0.312500X-0.812500X0.312500X-0.812500X0.312500X0.812500X0*%
%ADD20RoundRect,0.312500X0.812500X0.312500X-0.812500X0.312500X-0.812500X-0.312500X0.812500X-0.312500X0*%
%ADD21RoundRect,0.312500X0.312500X-0.812500X0.312500X0.812500X-0.312500X0.812500X-0.312500X-0.812500X0*%
%ADD22C,0.650000*%
%ADD23O,0.900000X1.700000*%
%ADD24O,0.900000X2.400000*%
%ADD25R,2.000000X1.200000*%
%ADD26O,2.000000X1.200000*%
%ADD27C,3.200000*%
%ADD28C,3.450000*%
%ADD29C,2.404000*%
%ADD30C,2.204000*%
%ADD31RoundRect,0.250000X-0.750000X0.600000X-0.750000X-0.600000X0.750000X-0.600000X0.750000X0.600000X0*%
%ADD32O,2.000000X1.700000*%
%ADD33R,1.600000X1.600000*%
%ADD34C,1.600000*%
%ADD35C,1.300000*%
%ADD36C,3.000000*%
%ADD37R,1.428000X1.428000*%
%ADD38C,1.428000*%
%ADD39C,3.316000*%
%ADD40FreePoly0,0.000000*%
%ADD41FreePoly1,0.000000*%
%ADD42R,1.500000X1.000000*%
%ADD43FreePoly0,90.000000*%
%ADD44FreePoly1,90.000000*%
%ADD45C,1.000000*%
G04 APERTURE END LIST*
D10*
G04 #@! TO.C,J9*
X46055000Y-13014000D02*
X46253000Y-13062000D01*
X46442000Y-13140000D01*
X46616000Y-13247000D01*
X46771000Y-13380000D01*
X46904000Y-13535000D01*
X47011000Y-13709000D01*
X47089000Y-13898000D01*
X47137000Y-14096000D01*
X47153000Y-14300000D01*
X47153000Y-17200000D01*
X47137000Y-17404000D01*
X47089000Y-17602000D01*
X47011000Y-17791000D01*
X46904000Y-17965000D01*
X46771000Y-18120000D01*
X46616000Y-18253000D01*
X46442000Y-18360000D01*
X46253000Y-18438000D01*
X46055000Y-18486000D01*
X45851000Y-18502000D01*
X45647000Y-18486000D01*
X45449000Y-18438000D01*
X45260000Y-18360000D01*
X45086000Y-18253000D01*
X44931000Y-18120000D01*
X44798000Y-17965000D01*
X44691000Y-17791000D01*
X44613000Y-17602000D01*
X44565000Y-17404000D01*
X44549000Y-17200000D01*
X44549000Y-14300000D01*
X44565000Y-14096000D01*
X44613000Y-13898000D01*
X44691000Y-13709000D01*
X44798000Y-13535000D01*
X44931000Y-13380000D01*
X45086000Y-13247000D01*
X45260000Y-13140000D01*
X45449000Y-13062000D01*
X45647000Y-13014000D01*
X45851000Y-12998000D01*
X46055000Y-13014000D01*
G36*
X46055000Y-13014000D02*
G01*
X46253000Y-13062000D01*
X46442000Y-13140000D01*
X46616000Y-13247000D01*
X46771000Y-13380000D01*
X46904000Y-13535000D01*
X47011000Y-13709000D01*
X47089000Y-13898000D01*
X47137000Y-14096000D01*
X47153000Y-14300000D01*
X47153000Y-17200000D01*
X47137000Y-17404000D01*
X47089000Y-17602000D01*
X47011000Y-17791000D01*
X46904000Y-17965000D01*
X46771000Y-18120000D01*
X46616000Y-18253000D01*
X46442000Y-18360000D01*
X46253000Y-18438000D01*
X46055000Y-18486000D01*
X45851000Y-18502000D01*
X45647000Y-18486000D01*
X45449000Y-18438000D01*
X45260000Y-18360000D01*
X45086000Y-18253000D01*
X44931000Y-18120000D01*
X44798000Y-17965000D01*
X44691000Y-17791000D01*
X44613000Y-17602000D01*
X44565000Y-17404000D01*
X44549000Y-17200000D01*
X44549000Y-14300000D01*
X44565000Y-14096000D01*
X44613000Y-13898000D01*
X44691000Y-13709000D01*
X44798000Y-13535000D01*
X44931000Y-13380000D01*
X45086000Y-13247000D01*
X45260000Y-13140000D01*
X45449000Y-13062000D01*
X45647000Y-13014000D01*
X45851000Y-12998000D01*
X46055000Y-13014000D01*
G37*
X72355000Y-13014000D02*
X72553000Y-13062000D01*
X72742000Y-13140000D01*
X72916000Y-13247000D01*
X73071000Y-13380000D01*
X73204000Y-13535000D01*
X73311000Y-13709000D01*
X73389000Y-13898000D01*
X73437000Y-14096000D01*
X73453000Y-14300000D01*
X73453000Y-17200000D01*
X73437000Y-17404000D01*
X73389000Y-17602000D01*
X73311000Y-17791000D01*
X73204000Y-17965000D01*
X73071000Y-18120000D01*
X72916000Y-18253000D01*
X72742000Y-18360000D01*
X72553000Y-18438000D01*
X72355000Y-18486000D01*
X72151000Y-18502000D01*
X71947000Y-18486000D01*
X71749000Y-18438000D01*
X71560000Y-18360000D01*
X71386000Y-18253000D01*
X71231000Y-18120000D01*
X71098000Y-17965000D01*
X70991000Y-17791000D01*
X70913000Y-17602000D01*
X70865000Y-17404000D01*
X70849000Y-17200000D01*
X70849000Y-14300000D01*
X70865000Y-14096000D01*
X70913000Y-13898000D01*
X70991000Y-13709000D01*
X71098000Y-13535000D01*
X71231000Y-13380000D01*
X71386000Y-13247000D01*
X71560000Y-13140000D01*
X71749000Y-13062000D01*
X71947000Y-13014000D01*
X72151000Y-12998000D01*
X72355000Y-13014000D01*
G36*
X72355000Y-13014000D02*
G01*
X72553000Y-13062000D01*
X72742000Y-13140000D01*
X72916000Y-13247000D01*
X73071000Y-13380000D01*
X73204000Y-13535000D01*
X73311000Y-13709000D01*
X73389000Y-13898000D01*
X73437000Y-14096000D01*
X73453000Y-14300000D01*
X73453000Y-17200000D01*
X73437000Y-17404000D01*
X73389000Y-17602000D01*
X73311000Y-17791000D01*
X73204000Y-17965000D01*
X73071000Y-18120000D01*
X72916000Y-18253000D01*
X72742000Y-18360000D01*
X72553000Y-18438000D01*
X72355000Y-18486000D01*
X72151000Y-18502000D01*
X71947000Y-18486000D01*
X71749000Y-18438000D01*
X71560000Y-18360000D01*
X71386000Y-18253000D01*
X71231000Y-18120000D01*
X71098000Y-17965000D01*
X70991000Y-17791000D01*
X70913000Y-17602000D01*
X70865000Y-17404000D01*
X70849000Y-17200000D01*
X70849000Y-14300000D01*
X70865000Y-14096000D01*
X70913000Y-13898000D01*
X70991000Y-13709000D01*
X71098000Y-13535000D01*
X71231000Y-13380000D01*
X71386000Y-13247000D01*
X71560000Y-13140000D01*
X71749000Y-13062000D01*
X71947000Y-13014000D01*
X72151000Y-12998000D01*
X72355000Y-13014000D01*
G37*
G04 #@! TO.C,J8*
X16055000Y-13014000D02*
X16253000Y-13062000D01*
X16442000Y-13140000D01*
X16616000Y-13247000D01*
X16771000Y-13380000D01*
X16904000Y-13535000D01*
X17011000Y-13709000D01*
X17089000Y-13898000D01*
X17137000Y-14096000D01*
X17153000Y-14300000D01*
X17153000Y-17200000D01*
X17137000Y-17404000D01*
X17089000Y-17602000D01*
X17011000Y-17791000D01*
X16904000Y-17965000D01*
X16771000Y-18120000D01*
X16616000Y-18253000D01*
X16442000Y-18360000D01*
X16253000Y-18438000D01*
X16055000Y-18486000D01*
X15851000Y-18502000D01*
X15647000Y-18486000D01*
X15449000Y-18438000D01*
X15260000Y-18360000D01*
X15086000Y-18253000D01*
X14931000Y-18120000D01*
X14798000Y-17965000D01*
X14691000Y-17791000D01*
X14613000Y-17602000D01*
X14565000Y-17404000D01*
X14549000Y-17200000D01*
X14549000Y-14300000D01*
X14565000Y-14096000D01*
X14613000Y-13898000D01*
X14691000Y-13709000D01*
X14798000Y-13535000D01*
X14931000Y-13380000D01*
X15086000Y-13247000D01*
X15260000Y-13140000D01*
X15449000Y-13062000D01*
X15647000Y-13014000D01*
X15851000Y-12998000D01*
X16055000Y-13014000D01*
G36*
X16055000Y-13014000D02*
G01*
X16253000Y-13062000D01*
X16442000Y-13140000D01*
X16616000Y-13247000D01*
X16771000Y-13380000D01*
X16904000Y-13535000D01*
X17011000Y-13709000D01*
X17089000Y-13898000D01*
X17137000Y-14096000D01*
X17153000Y-14300000D01*
X17153000Y-17200000D01*
X17137000Y-17404000D01*
X17089000Y-17602000D01*
X17011000Y-17791000D01*
X16904000Y-17965000D01*
X16771000Y-18120000D01*
X16616000Y-18253000D01*
X16442000Y-18360000D01*
X16253000Y-18438000D01*
X16055000Y-18486000D01*
X15851000Y-18502000D01*
X15647000Y-18486000D01*
X15449000Y-18438000D01*
X15260000Y-18360000D01*
X15086000Y-18253000D01*
X14931000Y-18120000D01*
X14798000Y-17965000D01*
X14691000Y-17791000D01*
X14613000Y-17602000D01*
X14565000Y-17404000D01*
X14549000Y-17200000D01*
X14549000Y-14300000D01*
X14565000Y-14096000D01*
X14613000Y-13898000D01*
X14691000Y-13709000D01*
X14798000Y-13535000D01*
X14931000Y-13380000D01*
X15086000Y-13247000D01*
X15260000Y-13140000D01*
X15449000Y-13062000D01*
X15647000Y-13014000D01*
X15851000Y-12998000D01*
X16055000Y-13014000D01*
G37*
X42355000Y-13014000D02*
X42553000Y-13062000D01*
X42742000Y-13140000D01*
X42916000Y-13247000D01*
X43071000Y-13380000D01*
X43204000Y-13535000D01*
X43311000Y-13709000D01*
X43389000Y-13898000D01*
X43437000Y-14096000D01*
X43453000Y-14300000D01*
X43453000Y-17200000D01*
X43437000Y-17404000D01*
X43389000Y-17602000D01*
X43311000Y-17791000D01*
X43204000Y-17965000D01*
X43071000Y-18120000D01*
X42916000Y-18253000D01*
X42742000Y-18360000D01*
X42553000Y-18438000D01*
X42355000Y-18486000D01*
X42151000Y-18502000D01*
X41947000Y-18486000D01*
X41749000Y-18438000D01*
X41560000Y-18360000D01*
X41386000Y-18253000D01*
X41231000Y-18120000D01*
X41098000Y-17965000D01*
X40991000Y-17791000D01*
X40913000Y-17602000D01*
X40865000Y-17404000D01*
X40849000Y-17200000D01*
X40849000Y-14300000D01*
X40865000Y-14096000D01*
X40913000Y-13898000D01*
X40991000Y-13709000D01*
X41098000Y-13535000D01*
X41231000Y-13380000D01*
X41386000Y-13247000D01*
X41560000Y-13140000D01*
X41749000Y-13062000D01*
X41947000Y-13014000D01*
X42151000Y-12998000D01*
X42355000Y-13014000D01*
G36*
X42355000Y-13014000D02*
G01*
X42553000Y-13062000D01*
X42742000Y-13140000D01*
X42916000Y-13247000D01*
X43071000Y-13380000D01*
X43204000Y-13535000D01*
X43311000Y-13709000D01*
X43389000Y-13898000D01*
X43437000Y-14096000D01*
X43453000Y-14300000D01*
X43453000Y-17200000D01*
X43437000Y-17404000D01*
X43389000Y-17602000D01*
X43311000Y-17791000D01*
X43204000Y-17965000D01*
X43071000Y-18120000D01*
X42916000Y-18253000D01*
X42742000Y-18360000D01*
X42553000Y-18438000D01*
X42355000Y-18486000D01*
X42151000Y-18502000D01*
X41947000Y-18486000D01*
X41749000Y-18438000D01*
X41560000Y-18360000D01*
X41386000Y-18253000D01*
X41231000Y-18120000D01*
X41098000Y-17965000D01*
X40991000Y-17791000D01*
X40913000Y-17602000D01*
X40865000Y-17404000D01*
X40849000Y-17200000D01*
X40849000Y-14300000D01*
X40865000Y-14096000D01*
X40913000Y-13898000D01*
X40991000Y-13709000D01*
X41098000Y-13535000D01*
X41231000Y-13380000D01*
X41386000Y-13247000D01*
X41560000Y-13140000D01*
X41749000Y-13062000D01*
X41947000Y-13014000D01*
X42151000Y-12998000D01*
X42355000Y-13014000D01*
G37*
G04 #@! TD*
D11*
G04 #@! TO.C,TDM2*
X12290000Y-27570000D03*
D12*
X14830000Y-27570000D03*
X12290000Y-30110000D03*
X14830000Y-30110000D03*
X12290000Y-32650000D03*
X14830000Y-32650000D03*
X12290000Y-35190000D03*
X14830000Y-35190000D03*
X12290000Y-37730000D03*
X14830000Y-37730000D03*
X12290000Y-40270000D03*
X14830000Y-40270000D03*
X12290000Y-42810000D03*
X14830000Y-42810000D03*
X12290000Y-45350000D03*
X14830000Y-45350000D03*
X12290000Y-47890000D03*
X14830000Y-47890000D03*
X12290000Y-50430000D03*
X14830000Y-50430000D03*
G04 #@! TD*
D13*
G04 #@! TO.C,KiKit_MB_3_4*
X127250000Y-87400000D03*
G04 #@! TD*
G04 #@! TO.C,KiKit_MB_8_5*
X131928571Y-107000000D03*
G04 #@! TD*
G04 #@! TO.C,KiKit_MB_2_4*
X127250000Y-27400000D03*
G04 #@! TD*
G04 #@! TO.C,KiKit_MB_2_3*
X127250000Y-26600000D03*
G04 #@! TD*
G04 #@! TO.C,KiKit_MB_8_4*
X131071428Y-107000000D03*
G04 #@! TD*
D14*
G04 #@! TO.C,ILI1*
X120000000Y-39740000D03*
D15*
X120000000Y-42280000D03*
X120000000Y-44820000D03*
X120000000Y-47360000D03*
X120000000Y-49900000D03*
X120000000Y-52440000D03*
X120000000Y-54980000D03*
X120000000Y-57520000D03*
X120000000Y-60060000D03*
X120000000Y-62600000D03*
X120000000Y-65140000D03*
X120000000Y-67680000D03*
X120000000Y-70220000D03*
X120000000Y-72760000D03*
G04 #@! TD*
D13*
G04 #@! TO.C,KiKit_MB_7_5*
X131928571Y-7000000D03*
G04 #@! TD*
D14*
G04 #@! TO.C,ESP_R_ENC1*
X122540000Y-62600000D03*
D15*
X122540000Y-65140000D03*
X122540000Y-67680000D03*
X122540000Y-70220000D03*
X122540000Y-72760000D03*
G04 #@! TD*
D13*
G04 #@! TO.C,KiKit_MB_6_7*
X4642858Y-107000000D03*
G04 #@! TD*
D16*
G04 #@! TO.C,C7*
X42632323Y-86000000D03*
D17*
X46132323Y-86000000D03*
X47632323Y-86000000D03*
G04 #@! TD*
D13*
G04 #@! TO.C,KiKit_MB_6_2*
X357143Y-107000000D03*
G04 #@! TD*
G04 #@! TO.C,KiKit_MB_8_6*
X132785714Y-107000000D03*
G04 #@! TD*
D14*
G04 #@! TO.C,ESP_I1*
X120000000Y-75300000D03*
D12*
X120000000Y-77840000D03*
X120000000Y-80380000D03*
X120000000Y-82920000D03*
G04 #@! TD*
D13*
G04 #@! TO.C,KiKit_MB_3_3*
X127250000Y-86600000D03*
G04 #@! TD*
D18*
G04 #@! TO.C,MIDI_IN_1*
X110300000Y-9000000D03*
D19*
X115500000Y-16800000D03*
X112800000Y-15400000D03*
D20*
X106300000Y-20000000D03*
D21*
X105800000Y-12400000D03*
G04 #@! TD*
D13*
G04 #@! TO.C,KiKit_MB_6_3*
X1214286Y-107000000D03*
G04 #@! TD*
D14*
G04 #@! TO.C,USB_THRU1*
X76425000Y-22000000D03*
D15*
X78965000Y-22000000D03*
X81505000Y-22000000D03*
X84045000Y-22000000D03*
X86585000Y-22000000D03*
G04 #@! TD*
D14*
G04 #@! TO.C,MIDI_IO1*
X120000000Y-21960000D03*
D15*
X122540000Y-21960000D03*
X120000000Y-24500000D03*
X122540000Y-24500000D03*
X120000000Y-27040000D03*
X122540000Y-27040000D03*
X120000000Y-29580000D03*
X122540000Y-29580000D03*
X120000000Y-32120000D03*
X122540000Y-32120000D03*
X120000000Y-34660000D03*
X122540000Y-34660000D03*
G04 #@! TD*
D16*
G04 #@! TO.C,C9*
X54632323Y-86000000D03*
D17*
X58132323Y-86000000D03*
X59632323Y-86000000D03*
G04 #@! TD*
D13*
G04 #@! TO.C,KiKit_MB_5_6*
X3785715Y-7000000D03*
G04 #@! TD*
G04 #@! TO.C,KiKit_MB_2_2*
X127250000Y-25800000D03*
G04 #@! TD*
D22*
G04 #@! TO.C,USBC1*
X84975000Y-13100000D03*
X84125000Y-13100000D03*
X83275000Y-13100000D03*
X82425000Y-13100000D03*
X81575000Y-13100000D03*
X80725000Y-13100000D03*
X79875000Y-13100000D03*
X79025000Y-13100000D03*
X79025000Y-11750000D03*
X79875000Y-11750000D03*
X80725000Y-11750000D03*
X81575000Y-11750000D03*
X82425000Y-11750000D03*
X83275000Y-11750000D03*
X84125000Y-11750000D03*
X84975000Y-11750000D03*
D23*
X86325000Y-8740000D03*
X77675000Y-8740000D03*
D24*
X86325000Y-12120000D03*
X77675000Y-12120000D03*
G04 #@! TD*
D13*
G04 #@! TO.C,KiKit_MB_3_5*
X127250000Y-88200000D03*
G04 #@! TD*
D14*
G04 #@! TO.C,GPI1*
X122540000Y-52440000D03*
D15*
X122540000Y-54980000D03*
X122540000Y-57520000D03*
X122540000Y-60060000D03*
G04 #@! TD*
D13*
G04 #@! TO.C,KiKit_MB_1_5*
X6750000Y-25800000D03*
G04 #@! TD*
G04 #@! TO.C,KiKit_MB_5_4*
X2071429Y-7000000D03*
G04 #@! TD*
D25*
G04 #@! TO.C,U2*
X113000000Y-99000000D03*
D26*
X113000000Y-96460000D03*
X113000000Y-93920000D03*
X113000000Y-91380000D03*
X113000000Y-88840000D03*
X113000000Y-86300000D03*
X113000000Y-83760000D03*
X113000000Y-81220000D03*
X113000000Y-78680000D03*
X113000000Y-76140000D03*
X113000000Y-73600000D03*
X113000000Y-71060000D03*
X113000000Y-68520000D03*
X113000000Y-65980000D03*
X113000000Y-63440000D03*
X113000000Y-60900000D03*
X113000000Y-58360000D03*
X113000000Y-55820000D03*
X113000000Y-53280000D03*
X87603680Y-53282720D03*
X87603680Y-55822720D03*
X87600000Y-58360000D03*
X87600000Y-60900000D03*
X87600000Y-63440000D03*
X87600000Y-65980000D03*
X87600000Y-68520000D03*
X87600000Y-71060000D03*
X87600000Y-73600000D03*
X87600000Y-76140000D03*
X87600000Y-78680000D03*
X87600000Y-81220000D03*
X87600000Y-83760000D03*
X87600000Y-86300000D03*
X87600000Y-88840000D03*
X87600000Y-91380000D03*
X87600000Y-93920000D03*
X87600000Y-96460000D03*
X87600000Y-99000000D03*
G04 #@! TD*
D14*
G04 #@! TO.C,board_outline1*
X28575000Y-39000000D03*
D15*
X28575000Y-36460000D03*
X31115000Y-39000000D03*
X31115000Y-36460000D03*
X33655000Y-39000000D03*
X33655000Y-36460000D03*
X36195000Y-39000000D03*
X36195000Y-36460000D03*
X38735000Y-39000000D03*
X38735000Y-36460000D03*
X41275000Y-39000000D03*
X41275000Y-36460000D03*
X43815000Y-39000000D03*
X43815000Y-36460000D03*
X46355000Y-39000000D03*
X46355000Y-36460000D03*
X48895000Y-39000000D03*
X48895000Y-36460000D03*
X51435000Y-39000000D03*
X51435000Y-36460000D03*
D14*
X48890000Y-51710000D03*
X51430000Y-51710000D03*
D15*
X48890000Y-54250000D03*
X51430000Y-54250000D03*
X48890000Y-56790000D03*
X51430000Y-56790000D03*
X48890000Y-59330000D03*
X51430000Y-59330000D03*
X48890000Y-61870000D03*
X51430000Y-61870000D03*
X48890000Y-64410000D03*
X51430000Y-64410000D03*
X48890000Y-66950000D03*
X51430000Y-66950000D03*
X48890000Y-69490000D03*
X51430000Y-69490000D03*
D14*
X28570000Y-51710000D03*
D15*
X28570000Y-54250000D03*
X28570000Y-56790000D03*
X28570000Y-59330000D03*
X28570000Y-61870000D03*
X28570000Y-64410000D03*
X28570000Y-66950000D03*
X28570000Y-69490000D03*
X48890000Y-72015000D03*
D27*
X51430000Y-46615000D03*
X51430000Y-74555000D03*
X28570000Y-46615000D03*
G04 #@! TD*
D13*
G04 #@! TO.C,KiKit_MB_6_6*
X3785715Y-107000000D03*
G04 #@! TD*
G04 #@! TO.C,KiKit_MB_5_5*
X2928572Y-7000000D03*
G04 #@! TD*
D28*
G04 #@! TO.C,board_outline2*
X10175000Y-12160000D03*
X10175000Y-101834000D03*
X123825000Y-12160000D03*
X123825000Y-101840000D03*
G04 #@! TD*
D13*
G04 #@! TO.C,KiKit_MB_1_3*
X6750000Y-27400000D03*
G04 #@! TD*
D29*
G04 #@! TO.C,J9*
X69751000Y-12250000D03*
X55751000Y-12250000D03*
D30*
X69751000Y-19500000D03*
X55751000Y-19500000D03*
G04 #@! TD*
D13*
G04 #@! TO.C,KiKit_MB_8_3*
X130214285Y-107000000D03*
G04 #@! TD*
D31*
G04 #@! TO.C,J11*
X30967500Y-27750000D03*
D32*
X30967500Y-30250000D03*
G04 #@! TD*
D14*
G04 #@! TO.C,D1*
X122540000Y-37200000D03*
D12*
X122540000Y-39740000D03*
X122540000Y-42280000D03*
X122540000Y-44820000D03*
X122540000Y-47360000D03*
X122540000Y-49900000D03*
G04 #@! TD*
D33*
G04 #@! TO.C,U1*
X67380000Y-47310000D03*
D34*
X67380000Y-49850000D03*
X67380000Y-52390000D03*
X67380000Y-54930000D03*
X67380000Y-57470000D03*
X67380000Y-60010000D03*
X67380000Y-62550000D03*
X67380000Y-65090000D03*
X67380000Y-67630000D03*
X67380000Y-70170000D03*
X67380000Y-72710000D03*
X67380000Y-75250000D03*
X67380000Y-77790000D03*
X67380000Y-80330000D03*
X67380000Y-82870000D03*
X67380000Y-85410000D03*
X67380000Y-87950000D03*
X67380000Y-90490000D03*
X67380000Y-93030000D03*
X67380000Y-95570000D03*
X67380000Y-98110000D03*
X67380000Y-100650000D03*
X67380000Y-103190000D03*
X67380000Y-105730000D03*
X82620000Y-105730000D03*
X82620000Y-103190000D03*
X82620000Y-100650000D03*
X82620000Y-98110000D03*
X82620000Y-95570000D03*
X82620000Y-93030000D03*
X82620000Y-90490000D03*
X82620000Y-87950000D03*
X82620000Y-85410000D03*
X82620000Y-82870000D03*
X82620000Y-80330000D03*
X82620000Y-77790000D03*
X82620000Y-75250000D03*
X82620000Y-72710000D03*
X82620000Y-70170000D03*
X82620000Y-67630000D03*
X82620000Y-65090000D03*
X82620000Y-62550000D03*
X82620000Y-60010000D03*
X82620000Y-57470000D03*
X82620000Y-54930000D03*
X82620000Y-52390000D03*
X82620000Y-49850000D03*
X82620000Y-47310000D03*
X80080000Y-49850000D03*
X69920000Y-93030000D03*
X72460000Y-93030000D03*
X75000000Y-93030000D03*
X77540000Y-93030000D03*
X80080000Y-93030000D03*
D33*
X70430800Y-53609200D03*
D34*
X70430800Y-56149200D03*
X70430800Y-58689200D03*
X70430800Y-61229200D03*
X70430800Y-63769200D03*
D35*
X76270000Y-48040000D03*
X73730000Y-48040000D03*
G04 #@! TD*
D14*
G04 #@! TO.C,T_PROG1*
X119962500Y-85557262D03*
D15*
X119962500Y-88097262D03*
X119962500Y-90637262D03*
G04 #@! TD*
D11*
G04 #@! TO.C,TDM1*
X12290000Y-64570000D03*
D12*
X14830000Y-64570000D03*
X12290000Y-67110000D03*
X14830000Y-67110000D03*
X12290000Y-69650000D03*
X14830000Y-69650000D03*
X12290000Y-72190000D03*
X14830000Y-72190000D03*
X12290000Y-74730000D03*
X14830000Y-74730000D03*
X12290000Y-77270000D03*
X14830000Y-77270000D03*
X12290000Y-79810000D03*
X14830000Y-79810000D03*
X12290000Y-82350000D03*
X14830000Y-82350000D03*
X12290000Y-84890000D03*
X14830000Y-84890000D03*
X12290000Y-87430000D03*
X14830000Y-87430000D03*
G04 #@! TD*
D13*
G04 #@! TO.C,KiKit_MB_3_2*
X127250000Y-85800000D03*
G04 #@! TD*
G04 #@! TO.C,KiKit_MB_7_4*
X131071428Y-7000000D03*
G04 #@! TD*
G04 #@! TO.C,KiKit_MB_1_4*
X6750000Y-26600000D03*
G04 #@! TD*
D14*
G04 #@! TO.C,ESP_PROG1*
X122502500Y-85557262D03*
D15*
X122502500Y-88097262D03*
X122502500Y-90637262D03*
G04 #@! TD*
D20*
G04 #@! TO.C,HPTRS1*
X45250000Y-105000000D03*
D21*
X40050000Y-97200000D03*
X42750000Y-98600000D03*
D18*
X49250000Y-94000000D03*
D19*
X49750000Y-101600000D03*
G04 #@! TD*
D13*
G04 #@! TO.C,KiKit_MB_6_5*
X2928572Y-107000000D03*
G04 #@! TD*
G04 #@! TO.C,KiKit_MB_5_3*
X1214286Y-7000000D03*
G04 #@! TD*
D14*
G04 #@! TO.C,BAT1*
X119962500Y-93177262D03*
D12*
X122502500Y-93177262D03*
G04 #@! TD*
D13*
G04 #@! TO.C,KiKit_MB_5_2*
X357143Y-7000000D03*
G04 #@! TD*
G04 #@! TO.C,KiKit_MB_4_4*
X6750000Y-86600000D03*
G04 #@! TD*
G04 #@! TO.C,KiKit_MB_4_3*
X6750000Y-87400000D03*
G04 #@! TD*
D20*
G04 #@! TO.C,HPTRS2*
X57250000Y-105000000D03*
D21*
X52050000Y-97200000D03*
X54750000Y-98600000D03*
D18*
X61250000Y-94000000D03*
D19*
X61750000Y-101600000D03*
G04 #@! TD*
D13*
G04 #@! TO.C,KiKit_MB_8_7*
X133642857Y-107000000D03*
G04 #@! TD*
G04 #@! TO.C,KiKit_MB_7_3*
X130214285Y-7000000D03*
G04 #@! TD*
G04 #@! TO.C,KiKit_MB_7_6*
X132785714Y-7000000D03*
G04 #@! TD*
D14*
G04 #@! TO.C,J12*
X122540000Y-75300000D03*
D15*
X122540000Y-77840000D03*
X122540000Y-80380000D03*
X122540000Y-82920000D03*
G04 #@! TD*
D13*
G04 #@! TO.C,KiKit_MB_5_7*
X4642858Y-7000000D03*
G04 #@! TD*
G04 #@! TO.C,KiKit_MB_4_5*
X6750000Y-85800000D03*
G04 #@! TD*
D36*
G04 #@! TO.C,1/4-PHONE1*
X37115000Y-98100000D03*
X20885000Y-98100000D03*
X37115000Y-104450000D03*
X20885000Y-104450000D03*
X37115000Y-91750000D03*
X20885000Y-91750000D03*
G04 #@! TD*
D13*
G04 #@! TO.C,KiKit_MB_7_7*
X133642857Y-7000000D03*
G04 #@! TD*
G04 #@! TO.C,KiKit_MB_7_2*
X129357142Y-7000000D03*
G04 #@! TD*
D14*
G04 #@! TO.C,J2*
X120000000Y-37200000D03*
G04 #@! TD*
D37*
G04 #@! TO.C,USBA1*
X99445000Y-19990000D03*
D38*
X96945000Y-19990000D03*
X94945000Y-19990000D03*
X92445000Y-19990000D03*
D39*
X102515000Y-17280000D03*
X89485000Y-17280000D03*
G04 #@! TD*
D13*
G04 #@! TO.C,KiKit_MB_6_4*
X2071429Y-107000000D03*
G04 #@! TD*
G04 #@! TO.C,KiKit_MB_2_5*
X127250000Y-28200000D03*
G04 #@! TD*
D29*
G04 #@! TO.C,J8*
X39751000Y-12250000D03*
X25751000Y-12250000D03*
D30*
X39751000Y-19500000D03*
X25751000Y-19500000D03*
G04 #@! TD*
D13*
G04 #@! TO.C,KiKit_MB_4_2*
X6750000Y-88200000D03*
G04 #@! TD*
G04 #@! TO.C,KiKit_MB_1_2*
X6750000Y-28200000D03*
G04 #@! TD*
D31*
G04 #@! TO.C,J10*
X58467500Y-27250000D03*
D32*
X58467500Y-29750000D03*
G04 #@! TD*
D13*
G04 #@! TO.C,KiKit_MB_8_2*
X129357142Y-107000000D03*
G04 #@! TD*
D40*
G04 #@! TO.C,G1*
X95275000Y-13877500D03*
D41*
X96725000Y-13877500D03*
G04 #@! TD*
D42*
G04 #@! TO.C,ILI_VCC1*
X117000000Y-38500000D03*
X117000000Y-39800000D03*
X117000000Y-41100000D03*
G04 #@! TD*
D43*
G04 #@! TO.C,G2*
X82500000Y-18225000D03*
D44*
X82500000Y-16775000D03*
G04 #@! TD*
D45*
G04 #@! TO.C,KiKit_FID_B_1*
X4000000Y-4000000D03*
G04 #@! TD*
G04 #@! TO.C,KiKit_FID_B_3*
X4000000Y-110000000D03*
G04 #@! TD*
G04 #@! TO.C,KiKit_FID_B_4*
X130000000Y-110000000D03*
G04 #@! TD*
G04 #@! TO.C,KiKit_FID_B_2*
X130000000Y-4000000D03*
G04 #@! TD*
M02*
