M48
; DRILL file {KiCad 9.0.4} date 2025-08-29T08:58:50-0400
; FORMAT={-:-/ absolute / metric / decimal}
; #@! TF.CreationDate,2025-08-29T08:58:50-04:00
; #@! TF.GenerationSoftware,Kicad,Pcbnew,9.0.4
; #@! TF.FileFunction,NonPlated,1,8,NPTH
FMAT,2
METRIC
; #@! TA.AperFunction,NonPlated,NPTH,ComponentDrill
T1C0.500
%
G90
G05
T1
X0.357Y-7.0
X0.357Y-107.0
X1.214Y-7.0
X1.214Y-107.0
X2.071Y-7.0
X2.071Y-107.0
X2.929Y-7.0
X2.929Y-107.0
X3.786Y-7.0
X3.786Y-107.0
X4.643Y-7.0
X4.643Y-107.0
X6.75Y-25.8
X6.75Y-26.6
X6.75Y-27.4
X6.75Y-28.2
X6.75Y-85.8
X6.75Y-86.6
X6.75Y-87.4
X6.75Y-88.2
X127.25Y-25.8
X127.25Y-26.6
X127.25Y-27.4
X127.25Y-28.2
X127.25Y-85.8
X127.25Y-86.6
X127.25Y-87.4
X127.25Y-88.2
X129.357Y-7.0
X129.357Y-107.0
X130.214Y-7.0
X130.214Y-107.0
X131.071Y-7.0
X131.071Y-107.0
X131.929Y-7.0
X131.929Y-107.0
X132.786Y-7.0
X132.786Y-107.0
X133.643Y-7.0
X133.643Y-107.0
M30
